<mxfile host="app.diagrams.net" modified="2023-08-19T17:28:35.768Z" agent="Mozilla/5.0 (Windows NT 10.0; Win64; x64) AppleWebKit/537.36 (KHTML, like Gecko) Chrome/115.0.0.0 Safari/537.36 OPR/101.0.0.0" etag="VnuymGdKJ30xFsmjVY0h" version="21.6.8" type="github">
  <diagram name="Page-1" id="sFfoceqI1ywxdXFWm-_H">
    <mxGraphModel dx="2475" dy="2525" grid="1" gridSize="15" guides="1" tooltips="1" connect="1" arrows="1" fold="1" page="1" pageScale="1" pageWidth="1700" pageHeight="1100" background="none" math="0" shadow="0">
      <root>
        <mxCell id="0" />
        <mxCell id="1" parent="0" />
        <mxCell id="EUZWt35lkv1LD6IBplJi-7" style="edgeStyle=orthogonalEdgeStyle;rounded=1;orthogonalLoop=1;jettySize=auto;html=1;labelBackgroundColor=none;fontColor=default;sketch=1;curveFitting=1;jiggle=2;entryX=0.5;entryY=0;entryDx=0;entryDy=0;" parent="1" source="EUZWt35lkv1LD6IBplJi-15" target="EUZWt35lkv1LD6IBplJi-12" edge="1">
          <mxGeometry relative="1" as="geometry">
            <mxPoint x="325" y="-640" as="targetPoint" />
          </mxGeometry>
        </mxCell>
        <mxCell id="EUZWt35lkv1LD6IBplJi-2" value="user login&amp;nbsp;" style="ellipse;whiteSpace=wrap;html=1;labelBackgroundColor=none;rounded=1;sketch=1;curveFitting=1;jiggle=2;" parent="1" vertex="1">
          <mxGeometry x="120" y="-810" width="120" height="80" as="geometry" />
        </mxCell>
        <mxCell id="EUZWt35lkv1LD6IBplJi-9" value="" style="edgeStyle=orthogonalEdgeStyle;rounded=1;orthogonalLoop=1;jettySize=auto;html=1;labelBackgroundColor=none;fontColor=default;sketch=1;curveFitting=1;jiggle=2;entryX=0.5;entryY=0;entryDx=0;entryDy=0;" parent="1" source="EUZWt35lkv1LD6IBplJi-2" target="EUZWt35lkv1LD6IBplJi-15" edge="1">
          <mxGeometry relative="1" as="geometry">
            <mxPoint x="315" y="-710" as="targetPoint" />
            <mxPoint x="325" y="-740" as="sourcePoint" />
            <Array as="points">
              <mxPoint x="316" y="-770" />
              <mxPoint x="316" y="-615" />
            </Array>
          </mxGeometry>
        </mxCell>
        <mxCell id="ghbjzDnoIVB0wGIXrf6Z-35" style="edgeStyle=orthogonalEdgeStyle;rounded=0;sketch=1;hachureGap=4;jiggle=2;curveFitting=1;orthogonalLoop=1;jettySize=auto;html=1;fontFamily=Architects Daughter;fontSource=https%3A%2F%2Ffonts.googleapis.com%2Fcss%3Ffamily%3DArchitects%2BDaughter;fontSize=16;" edge="1" parent="1" source="EUZWt35lkv1LD6IBplJi-12" target="EUZWt35lkv1LD6IBplJi-18">
          <mxGeometry relative="1" as="geometry" />
        </mxCell>
        <mxCell id="EUZWt35lkv1LD6IBplJi-12" value="&amp;nbsp; token _user :&lt;br&gt;&amp;nbsp; email&amp;nbsp;&amp;nbsp;&lt;br&gt;&amp;nbsp; name&amp;nbsp;" style="whiteSpace=wrap;html=1;aspect=fixed;rounded=1;glass=0;align=left;labelBackgroundColor=none;sketch=1;curveFitting=1;jiggle=2;" parent="1" vertex="1">
          <mxGeometry x="116.25" y="-510" width="100" height="100" as="geometry" />
        </mxCell>
        <mxCell id="EUZWt35lkv1LD6IBplJi-15" value="&lt;h1 style=&quot;border-color: var(--border-color); font-size: 28px;&quot;&gt;&lt;font style=&quot;border-color: var(--border-color);&quot;&gt;admin dash home&amp;nbsp;&lt;/font&gt;&lt;/h1&gt;&lt;h1 style=&quot;font-size: 28px;&quot;&gt;&lt;div style=&quot;border-color: var(--border-color);&quot;&gt;&lt;br style=&quot;border-color: var(--border-color); font-weight: 400;&quot;&gt;&lt;/div&gt;&lt;/h1&gt;&lt;p&gt;&lt;br&gt;&lt;/p&gt;" style="text;html=1;strokeColor=none;fillColor=none;spacing=5;spacingTop=-20;whiteSpace=wrap;overflow=hidden;rounded=0;fontSize=20;fontFamily=Architects Daughter;" parent="1" vertex="1">
          <mxGeometry x="105" y="-615" width="240" height="45" as="geometry" />
        </mxCell>
        <mxCell id="EUZWt35lkv1LD6IBplJi-18" value="&amp;nbsp; &amp;nbsp;client_name&amp;nbsp; (&lt;font color=&quot;#ff9933&quot;&gt;string&lt;/font&gt;)&lt;br&gt;&amp;nbsp; &amp;nbsp;client_phone (&lt;font color=&quot;#ffb366&quot;&gt;integer&lt;/font&gt;)&lt;br&gt;&amp;nbsp; &amp;nbsp;client_address (&lt;font color=&quot;#ffb366&quot;&gt;string&lt;/font&gt;)&lt;br&gt;&amp;nbsp; &amp;nbsp;created_at&amp;nbsp; &amp;nbsp; (&lt;font color=&quot;#ffb366&quot;&gt;date&lt;/font&gt;)&amp;nbsp; &amp;nbsp; &amp;nbsp; &amp;nbsp; &amp;nbsp; &amp;nbsp; &amp;nbsp; &amp;nbsp; &amp;nbsp; &amp;nbsp; &amp;nbsp; &amp;nbsp; &amp;nbsp; &amp;nbsp; &amp;nbsp; &amp;nbsp; &amp;nbsp; &amp;nbsp; &amp;nbsp;Commercial_number (&lt;font color=&quot;#ffb366&quot;&gt;integer&lt;/font&gt;)&lt;br&gt;&amp;nbsp; &amp;nbsp;tax_number (&lt;font color=&quot;#ffb366&quot;&gt;integer&lt;/font&gt;)&lt;br&gt;&amp;nbsp; &amp;nbsp;id&amp;nbsp; (&lt;font color=&quot;#ffb366&quot;&gt;integer&lt;/font&gt;)" style="aspect=fixed;rounded=1;glass=0;align=left;labelBackgroundColor=none;sketch=1;curveFitting=1;jiggle=2;labelBorderColor=none;whiteSpace=wrap;html=1;fontStyle=0;horizontal=1;verticalAlign=middle;fontFamily=Helvetica;arcSize=28;" parent="1" vertex="1">
          <mxGeometry x="300" y="-465" width="225" height="225" as="geometry" />
        </mxCell>
        <mxCell id="EUZWt35lkv1LD6IBplJi-19" value="&lt;h1 style=&quot;font-size: 28px;&quot;&gt;client tabel&lt;/h1&gt;&lt;div&gt;&lt;br&gt;&lt;/div&gt;" style="text;html=1;strokeColor=none;fillColor=none;spacing=5;spacingTop=-20;whiteSpace=wrap;overflow=hidden;rounded=0;fontSize=20;fontFamily=Architects Daughter;" parent="1" vertex="1">
          <mxGeometry x="337.5" y="-525" width="150" height="45" as="geometry" />
        </mxCell>
        <mxCell id="ghbjzDnoIVB0wGIXrf6Z-7" style="edgeStyle=orthogonalEdgeStyle;rounded=0;sketch=1;hachureGap=4;jiggle=2;curveFitting=1;orthogonalLoop=1;jettySize=auto;html=1;entryX=0.5;entryY=0;entryDx=0;entryDy=0;fontFamily=Architects Daughter;fontSource=https%3A%2F%2Ffonts.googleapis.com%2Fcss%3Ffamily%3DArchitects%2BDaughter;fontSize=16;" edge="1" parent="1" source="ghbjzDnoIVB0wGIXrf6Z-6" target="EUZWt35lkv1LD6IBplJi-2">
          <mxGeometry relative="1" as="geometry" />
        </mxCell>
        <mxCell id="ghbjzDnoIVB0wGIXrf6Z-6" value="&lt;h1 style=&quot;font-size: 28px;&quot;&gt;&lt;font style=&quot;font-size: 28px;&quot;&gt;auth&amp;nbsp;&lt;/font&gt;&lt;/h1&gt;&lt;div style=&quot;font-size: 28px;&quot;&gt;&lt;br&gt;&lt;/div&gt;&lt;p&gt;&lt;br&gt;&lt;/p&gt;" style="text;html=1;strokeColor=none;fillColor=none;spacing=5;spacingTop=-20;whiteSpace=wrap;overflow=hidden;rounded=0;fontSize=20;fontFamily=Architects Daughter;" vertex="1" parent="1">
          <mxGeometry x="143.75" y="-915" width="72.5" height="45" as="geometry" />
        </mxCell>
        <mxCell id="ghbjzDnoIVB0wGIXrf6Z-15" style="edgeStyle=orthogonalEdgeStyle;rounded=0;sketch=1;hachureGap=4;jiggle=2;curveFitting=1;orthogonalLoop=1;jettySize=auto;html=1;exitX=0;exitY=0.75;exitDx=0;exitDy=0;entryX=1;entryY=0.5;entryDx=0;entryDy=0;fontFamily=Architects Daughter;fontSource=https%3A%2F%2Ffonts.googleapis.com%2Fcss%3Ffamily%3DArchitects%2BDaughter;fontSize=16;" edge="1" parent="1" source="ghbjzDnoIVB0wGIXrf6Z-9" target="EUZWt35lkv1LD6IBplJi-18">
          <mxGeometry relative="1" as="geometry" />
        </mxCell>
        <mxCell id="ghbjzDnoIVB0wGIXrf6Z-9" value="&lt;font face=&quot;Helvetica&quot; style=&quot;font-size: 14px;&quot;&gt;&lt;font style=&quot;font-size: 14px;&quot;&gt;&amp;nbsp; &lt;br&gt;&amp;nbsp; &amp;nbsp;id (&lt;font style=&quot;font-size: 14px;&quot; color=&quot;#ffb366&quot;&gt;integer&lt;/font&gt;)&lt;br&gt;&amp;nbsp; &amp;nbsp;door (&lt;font style=&quot;font-size: 14px;&quot; color=&quot;#ffb366&quot;&gt;string&lt;/font&gt;)&amp;nbsp;&lt;br&gt;&amp;nbsp; &amp;nbsp;throat_value (&lt;font style=&quot;font-size: 14px;&quot; color=&quot;#ffb366&quot;&gt;string&lt;/font&gt;)&lt;br&gt;&amp;nbsp; &amp;nbsp; frame_value (&lt;span style=&quot;color: rgb(255, 179, 102);&quot;&gt;string&lt;/span&gt;)&lt;br&gt;&amp;nbsp; &amp;nbsp;accesories_value (&lt;span style=&quot;color: rgb(255, 179, 102);&quot;&gt;string&lt;/span&gt;&lt;/font&gt;&lt;font style=&quot;font-size: 14px;&quot;&gt;)&lt;br&gt;&amp;nbsp; &amp;nbsp;client_id (foring id ) (&lt;font style=&quot;font-size: 14px;&quot; color=&quot;#ffcc99&quot;&gt;integer&lt;/font&gt;)&amp;nbsp;&lt;br&gt;&lt;/font&gt;&amp;nbsp; &amp;nbsp;detent_door (&lt;font style=&quot;border-color: var(--border-color); font-size: 14px;&quot; color=&quot;#ff9933&quot;&gt;string&lt;/font&gt;)&lt;br style=&quot;border-color: var(--border-color);&quot;&gt;&amp;nbsp; &amp;nbsp;colon_cylinder(&lt;font style=&quot;border-color: var(--border-color); font-size: 14px;&quot; color=&quot;#ffb366&quot;&gt;integer&lt;/font&gt;)&lt;/font&gt;&lt;span style=&quot;background-color: initial; font-size: 19px;&quot;&gt;&lt;br&gt;&lt;/span&gt;" style="rounded=0;whiteSpace=wrap;html=1;sketch=1;hachureGap=4;jiggle=2;curveFitting=1;fontFamily=Architects Daughter;fontSource=https%3A%2F%2Ffonts.googleapis.com%2Fcss%3Ffamily%3DArchitects%2BDaughter;fontSize=20;align=left;" vertex="1" parent="1">
          <mxGeometry x="630" y="-907.5" width="300" height="240" as="geometry" />
        </mxCell>
        <mxCell id="ghbjzDnoIVB0wGIXrf6Z-12" style="edgeStyle=orthogonalEdgeStyle;rounded=0;sketch=1;hachureGap=4;jiggle=2;curveFitting=1;orthogonalLoop=1;jettySize=auto;html=1;entryX=0.5;entryY=0;entryDx=0;entryDy=0;fontFamily=Architects Daughter;fontSource=https%3A%2F%2Ffonts.googleapis.com%2Fcss%3Ffamily%3DArchitects%2BDaughter;fontSize=16;" edge="1" parent="1" source="ghbjzDnoIVB0wGIXrf6Z-11" target="ghbjzDnoIVB0wGIXrf6Z-9">
          <mxGeometry relative="1" as="geometry" />
        </mxCell>
        <mxCell id="ghbjzDnoIVB0wGIXrf6Z-11" value="&lt;h1 style=&quot;border-color: var(--border-color);&quot;&gt;&lt;font style=&quot;font-size: 30px;&quot;&gt;door specification&lt;/font&gt;&lt;br&gt;&lt;/h1&gt;" style="text;html=1;strokeColor=none;fillColor=none;spacing=5;spacingTop=-20;whiteSpace=wrap;overflow=hidden;rounded=0;fontSize=20;fontFamily=Architects Daughter;" vertex="1" parent="1">
          <mxGeometry x="626" y="-990" width="299" height="75" as="geometry" />
        </mxCell>
        <mxCell id="ghbjzDnoIVB0wGIXrf6Z-14" value="" style="endArrow=none;dashed=1;html=1;dashPattern=1 3;strokeWidth=2;rounded=0;sketch=1;hachureGap=4;jiggle=2;curveFitting=1;fontFamily=Architects Daughter;fontSource=https%3A%2F%2Ffonts.googleapis.com%2Fcss%3Ffamily%3DArchitects%2BDaughter;fontSize=16;" edge="1" parent="1">
          <mxGeometry width="50" height="50" relative="1" as="geometry">
            <mxPoint x="645" y="-720" as="sourcePoint" />
            <mxPoint x="735" y="-720" as="targetPoint" />
            <Array as="points">
              <mxPoint x="645.5" y="-720" />
            </Array>
          </mxGeometry>
        </mxCell>
        <mxCell id="ghbjzDnoIVB0wGIXrf6Z-20" style="edgeStyle=orthogonalEdgeStyle;rounded=0;sketch=1;hachureGap=4;jiggle=2;curveFitting=1;orthogonalLoop=1;jettySize=auto;html=1;entryX=0.549;entryY=-0.011;entryDx=0;entryDy=0;entryPerimeter=0;fontFamily=Architects Daughter;fontSource=https%3A%2F%2Ffonts.googleapis.com%2Fcss%3Ffamily%3DArchitects%2BDaughter;fontSize=16;" edge="1" parent="1" source="ghbjzDnoIVB0wGIXrf6Z-16" target="ghbjzDnoIVB0wGIXrf6Z-19">
          <mxGeometry relative="1" as="geometry" />
        </mxCell>
        <mxCell id="ghbjzDnoIVB0wGIXrf6Z-16" value="&lt;h1 style=&quot;border-color: var(--border-color); font-size: 25px;&quot;&gt;&lt;span style=&quot;&quot;&gt;another&amp;nbsp;&lt;/span&gt;specification&lt;/h1&gt;" style="text;html=1;strokeColor=none;fillColor=none;spacing=5;spacingTop=-20;whiteSpace=wrap;overflow=hidden;rounded=0;fontSize=20;fontFamily=Architects Daughter;" vertex="1" parent="1">
          <mxGeometry x="653.75" y="-645" width="367.5" height="45" as="geometry" />
        </mxCell>
        <mxCell id="ghbjzDnoIVB0wGIXrf6Z-26" style="edgeStyle=orthogonalEdgeStyle;rounded=0;sketch=1;hachureGap=4;jiggle=2;curveFitting=1;orthogonalLoop=1;jettySize=auto;html=1;exitX=0;exitY=0.75;exitDx=0;exitDy=0;entryX=0.997;entryY=0.654;entryDx=0;entryDy=0;entryPerimeter=0;fontFamily=Architects Daughter;fontSource=https%3A%2F%2Ffonts.googleapis.com%2Fcss%3Ffamily%3DArchitects%2BDaughter;fontSize=16;" edge="1" parent="1" source="ghbjzDnoIVB0wGIXrf6Z-21" target="EUZWt35lkv1LD6IBplJi-18">
          <mxGeometry relative="1" as="geometry" />
        </mxCell>
        <mxCell id="ghbjzDnoIVB0wGIXrf6Z-19" value="&lt;font style=&quot;font-size: 12px;&quot;&gt;&amp;nbsp;&amp;nbsp;&lt;br&gt;&amp;nbsp; &amp;nbsp;id(&lt;font style=&quot;font-size: 12px;&quot; color=&quot;#ffb366&quot;&gt;integer&lt;/font&gt;)&lt;br&gt;&amp;nbsp; specification_title (&lt;font style=&quot;font-size: 12px;&quot; color=&quot;#ffb366&quot;&gt;string&lt;/font&gt;)&amp;nbsp; &amp;nbsp;&lt;br&gt;&amp;nbsp; s&lt;span style=&quot;border-color: var(--border-color); background-color: initial;&quot;&gt;pecification_value (&lt;font color=&quot;#ffb366&quot;&gt;string&lt;/font&gt;)&amp;nbsp;&lt;br&gt;&lt;/span&gt;&lt;/font&gt;&lt;span style=&quot;font-size: 11px; background-color: initial;&quot;&gt;&amp;nbsp; client_id (foring id) (&lt;font style=&quot;&quot; color=&quot;#ffb366&quot;&gt;integer&lt;/font&gt;)&lt;br&gt;&lt;/span&gt;" style="aspect=fixed;rounded=1;glass=0;align=left;labelBackgroundColor=none;sketch=1;curveFitting=1;jiggle=2;labelBorderColor=none;whiteSpace=wrap;html=1;fontStyle=0;horizontal=1;verticalAlign=middle;fontFamily=Helvetica;arcSize=28;" vertex="1" parent="1">
          <mxGeometry x="735" y="-570" width="172.5" height="172.5" as="geometry" />
        </mxCell>
        <mxCell id="ghbjzDnoIVB0wGIXrf6Z-27" value="" style="edgeStyle=orthogonalEdgeStyle;rounded=0;sketch=1;hachureGap=4;jiggle=2;curveFitting=1;orthogonalLoop=1;jettySize=auto;html=1;exitX=0;exitY=0.75;exitDx=0;exitDy=0;entryX=0.997;entryY=0.654;entryDx=0;entryDy=0;entryPerimeter=0;fontFamily=Architects Daughter;fontSource=https%3A%2F%2Ffonts.googleapis.com%2Fcss%3Ffamily%3DArchitects%2BDaughter;fontSize=16;" edge="1" parent="1" source="ghbjzDnoIVB0wGIXrf6Z-19" target="ghbjzDnoIVB0wGIXrf6Z-21">
          <mxGeometry relative="1" as="geometry">
            <mxPoint x="1050" y="-274" as="sourcePoint" />
            <mxPoint x="854" y="-518" as="targetPoint" />
          </mxGeometry>
        </mxCell>
        <mxCell id="ghbjzDnoIVB0wGIXrf6Z-21" value="array" style="text;strokeColor=none;fillColor=none;align=left;verticalAlign=middle;spacingLeft=4;spacingRight=4;overflow=hidden;points=[[0,0.5],[1,0.5]];portConstraint=eastwest;rotatable=0;whiteSpace=wrap;html=1;fontSize=20;fontFamily=Architects Daughter;" vertex="1" parent="1">
          <mxGeometry x="615" y="-465" width="71.75" height="30" as="geometry" />
        </mxCell>
        <mxCell id="ghbjzDnoIVB0wGIXrf6Z-32" style="edgeStyle=orthogonalEdgeStyle;rounded=0;sketch=1;hachureGap=4;jiggle=2;curveFitting=1;orthogonalLoop=1;jettySize=auto;html=1;fontFamily=Architects Daughter;fontSource=https%3A%2F%2Ffonts.googleapis.com%2Fcss%3Ffamily%3DArchitects%2BDaughter;fontSize=16;" edge="1" parent="1" source="ghbjzDnoIVB0wGIXrf6Z-28" target="ghbjzDnoIVB0wGIXrf6Z-33">
          <mxGeometry relative="1" as="geometry">
            <mxPoint x="750" y="-90" as="targetPoint" />
          </mxGeometry>
        </mxCell>
        <mxCell id="ghbjzDnoIVB0wGIXrf6Z-28" value="&lt;font style=&quot;font-size: 12px;&quot;&gt;&amp;nbsp;&amp;nbsp;&lt;br&gt;&amp;nbsp; &amp;nbsp;id(&lt;font style=&quot;font-size: 12px;&quot; color=&quot;#ffb366&quot;&gt;integer&lt;/font&gt;)&lt;br&gt;&lt;/font&gt;&lt;span style=&quot;font-size: 11px; font-family: &amp;quot;Architects Daughter&amp;quot;; background-color: initial;&quot;&gt;&amp;nbsp; &lt;/span&gt;&lt;span style=&quot;font-size: 11px; background-color: initial;&quot;&gt;&amp;nbsp;albayan (&lt;font color=&quot;#ffb366&quot;&gt;string&lt;/font&gt;)&lt;br&gt;&lt;/span&gt;&amp;nbsp; &amp;nbsp; model (&lt;span style=&quot;color: rgb(255, 179, 102); font-size: 11px;&quot;&gt;string&lt;/span&gt;)&amp;nbsp;&lt;br&gt;&amp;nbsp; &amp;nbsp; color (&lt;span style=&quot;color: rgb(255, 179, 102); font-size: 11px;&quot;&gt;string&lt;/span&gt;)&lt;br&gt;&amp;nbsp; &amp;nbsp; amount (&lt;span style=&quot;color: rgb(255, 179, 102);&quot;&gt;integer&lt;/span&gt;)&lt;br&gt;&amp;nbsp; &amp;nbsp; price (&lt;span style=&quot;color: rgb(255, 179, 102);&quot;&gt;integer&lt;/span&gt;)&lt;br&gt;&amp;nbsp; &amp;nbsp; sum (&lt;font color=&quot;#ffb366&quot;&gt;amount * price&lt;/font&gt;)&amp;nbsp;&lt;br&gt;&amp;nbsp; &amp;nbsp; client_id (foring id ) (&amp;nbsp;&lt;span style=&quot;color: rgb(255, 179, 102);&quot;&gt;integer&lt;/span&gt;&lt;span style=&quot;font-size: 11px; background-color: initial;&quot;&gt;)&lt;br&gt;&lt;/span&gt;" style="aspect=fixed;rounded=1;glass=0;align=left;labelBackgroundColor=none;sketch=1;curveFitting=1;jiggle=2;labelBorderColor=none;whiteSpace=wrap;html=1;fontStyle=0;horizontal=1;verticalAlign=middle;fontFamily=Helvetica;arcSize=28;" vertex="1" parent="1">
          <mxGeometry x="708.75" y="-270" width="210" height="210" as="geometry" />
        </mxCell>
        <mxCell id="ghbjzDnoIVB0wGIXrf6Z-31" style="edgeStyle=orthogonalEdgeStyle;rounded=0;sketch=1;hachureGap=4;jiggle=2;curveFitting=1;orthogonalLoop=1;jettySize=auto;html=1;entryX=0.411;entryY=-0.017;entryDx=0;entryDy=0;entryPerimeter=0;fontFamily=Architects Daughter;fontSource=https%3A%2F%2Ffonts.googleapis.com%2Fcss%3Ffamily%3DArchitects%2BDaughter;fontSize=16;" edge="1" parent="1" source="ghbjzDnoIVB0wGIXrf6Z-30" target="ghbjzDnoIVB0wGIXrf6Z-28">
          <mxGeometry relative="1" as="geometry" />
        </mxCell>
        <mxCell id="ghbjzDnoIVB0wGIXrf6Z-30" value="&lt;h1 style=&quot;border-color: var(--border-color);&quot;&gt;&lt;font style=&quot;font-size: 20px;&quot;&gt;door prices and&amp;nbsp; warranty&lt;/font&gt;&lt;/h1&gt;" style="text;html=1;strokeColor=none;fillColor=none;spacing=5;spacingTop=-20;whiteSpace=wrap;overflow=hidden;rounded=0;fontSize=20;fontFamily=Architects Daughter;" vertex="1" parent="1">
          <mxGeometry x="677.5" y="-410" width="320" height="60" as="geometry" />
        </mxCell>
        <mxCell id="ghbjzDnoIVB0wGIXrf6Z-37" style="edgeStyle=orthogonalEdgeStyle;rounded=0;sketch=1;hachureGap=4;jiggle=2;curveFitting=1;orthogonalLoop=1;jettySize=auto;html=1;entryX=0.5;entryY=1;entryDx=0;entryDy=0;fontFamily=Architects Daughter;fontSource=https%3A%2F%2Ffonts.googleapis.com%2Fcss%3Ffamily%3DArchitects%2BDaughter;fontSize=16;" edge="1" parent="1" source="ghbjzDnoIVB0wGIXrf6Z-33" target="EUZWt35lkv1LD6IBplJi-18">
          <mxGeometry relative="1" as="geometry" />
        </mxCell>
        <mxCell id="ghbjzDnoIVB0wGIXrf6Z-33" value="array" style="text;strokeColor=none;fillColor=none;align=left;verticalAlign=middle;spacingLeft=4;spacingRight=4;overflow=hidden;points=[[0,0.5],[1,0.5]];portConstraint=eastwest;rotatable=0;whiteSpace=wrap;html=1;fontSize=20;fontFamily=Architects Daughter;" vertex="1" parent="1">
          <mxGeometry x="510" y="-150" width="80" height="30" as="geometry" />
        </mxCell>
        <mxCell id="ghbjzDnoIVB0wGIXrf6Z-38" value="&lt;font style=&quot;font-size: 12px;&quot;&gt;&amp;nbsp;&amp;nbsp;&lt;br&gt;&amp;nbsp; &amp;nbsp;id(&lt;font style=&quot;font-size: 12px;&quot; color=&quot;#ffb366&quot;&gt;integer&lt;/font&gt;)&lt;br&gt;&lt;/font&gt;&lt;span style=&quot;font-size: 11px; font-family: &amp;quot;Architects Daughter&amp;quot;; background-color: initial;&quot;&gt;&amp;nbsp; &lt;/span&gt;&lt;span style=&quot;font-size: 11px; background-color: initial;&quot;&gt;&amp;nbsp;albayan (&lt;font color=&quot;#ffb366&quot;&gt;string&lt;/font&gt;)&lt;br&gt;&lt;/span&gt;&amp;nbsp; &amp;nbsp; model (&lt;span style=&quot;color: rgb(255, 179, 102); font-size: 11px;&quot;&gt;string&lt;/span&gt;)&amp;nbsp;&lt;br&gt;&amp;nbsp; &amp;nbsp; color (&lt;span style=&quot;color: rgb(255, 179, 102); font-size: 11px;&quot;&gt;string&lt;/span&gt;)&lt;br&gt;&amp;nbsp; &amp;nbsp; amount (&lt;span style=&quot;color: rgb(255, 179, 102);&quot;&gt;integer&lt;/span&gt;)&lt;br&gt;&amp;nbsp; &amp;nbsp; price (&lt;span style=&quot;color: rgb(255, 179, 102);&quot;&gt;integer&lt;/span&gt;)&lt;br&gt;&amp;nbsp; &amp;nbsp; sum (&lt;font color=&quot;#ffb366&quot;&gt;amount * price&lt;/font&gt;)&amp;nbsp;&lt;br&gt;&amp;nbsp; &amp;nbsp; client_id (foring id ) (&amp;nbsp;&lt;span style=&quot;color: rgb(255, 179, 102);&quot;&gt;integer&lt;/span&gt;&lt;span style=&quot;font-size: 11px; background-color: initial;&quot;&gt;)&lt;br&gt;&lt;/span&gt;" style="aspect=fixed;rounded=1;glass=0;align=left;labelBackgroundColor=none;sketch=1;curveFitting=1;jiggle=2;labelBorderColor=none;whiteSpace=wrap;html=1;fontStyle=0;horizontal=1;verticalAlign=middle;fontFamily=Helvetica;arcSize=28;" vertex="1" parent="1">
          <mxGeometry x="708.75" y="30" width="210" height="210" as="geometry" />
        </mxCell>
        <mxCell id="ghbjzDnoIVB0wGIXrf6Z-39" value="&lt;h1 style=&quot;border-color: var(--border-color);&quot;&gt;&lt;br&gt;&lt;/h1&gt;" style="text;html=1;strokeColor=none;fillColor=none;spacing=5;spacingTop=-20;whiteSpace=wrap;overflow=hidden;rounded=0;fontSize=20;fontFamily=Architects Daughter;" vertex="1" parent="1">
          <mxGeometry x="677.5" y="-60" width="320" height="60" as="geometry" />
        </mxCell>
      </root>
    </mxGraphModel>
  </diagram>
</mxfile>
